<svg xmlns="http://www.w3.org/2000/svg" viewBox="0 0 180 180">
    <!-- Background with gradient -->
    <defs>
        <linearGradient id="grad1" x1="0%" y1="0%" x2="100%" y2="100%">
            <stop offset="0%" style="stop-color:#0A2540;stop-opacity:1" />
            <stop offset="100%" style="stop-color:#1a3a5a;stop-opacity:1" />
        </linearGradient>
    </defs>

    <rect width="180" height="180" fill="url(#grad1)" rx="20" />

    <!-- Letter N with shadow -->
    <g>
        <!-- Shadow -->
        <g opacity="0.3" transform="translate(2, 2)">
            <rect x="35" y="45" width="20" height="90" fill="#000" />
            <polygon points="55,45 75,45 125,110 125,45 145,45 145,135 125,135 75,70 75,135 55,135" fill="#000" />
        </g>

        <!-- Main N -->
        <g fill="#00AEEF">
            <rect x="35" y="45" width="20" height="90" />
            <polygon points="55,45 75,45 125,110 125,45 145,45 145,135 125,135 75,70 75,135 55,135" />
        </g>
    </g>

    <!-- Accent elements -->
    <circle cx="152" cy="55" r="6" fill="#00D4FF" opacity="0.8" />
    <circle cx="160" cy="70" r="4" fill="#00D4FF" opacity="0.6" />
</svg>